<svg width="77" height="96" viewBox="0 0 77 96" fill="none" xmlns="http://www.w3.org/2000/svg">
<path d="M74.1486 -0.000213623H27.1895C25.6148 -0.000213623 24.3383 1.27125 24.3383 2.83968V93.0851C24.3383 94.6535 25.6148 95.925 27.1895 95.925H74.1486C75.7233 95.925 76.9999 94.6535 76.9999 93.0851V2.83968C76.9999 1.27125 75.7233 -0.000213623 74.1486 -0.000213623Z" fill="#F2F2F2"/>
<path d="M73.2533 -0.000213616H28.0868C27.0929 -0.000154612 26.1398 0.393076 25.437 1.09303C24.7342 1.79298 24.3395 2.74231 24.3394 3.73222V8.35678H77.0009V3.73222C77.0009 3.24205 76.9039 2.75669 76.7156 2.30383C76.5272 1.85098 76.2513 1.43951 75.9033 1.09292C75.5553 0.746326 75.1423 0.471373 74.6876 0.283813C74.2329 0.0962527 73.7454 -0.00024284 73.2533 -0.000213616Z" fill="#D3D3D3"/>
<path d="M24.3383 84.9081V92.1925C24.3383 93.1825 24.7331 94.1319 25.4359 94.8319C26.1387 95.5319 27.0918 95.9252 28.0857 95.9253H73.2526C73.7447 95.9253 74.232 95.8287 74.6867 95.6412C75.1414 95.4536 75.5546 95.1786 75.9026 94.832C76.2506 94.4854 76.5266 94.0739 76.7149 93.621C76.9032 93.1682 77.0001 92.6827 77.0001 92.1925V84.9081H24.3383Z" fill="#D3D3D3"/>
<path d="M56.4933 3.69772H44.8451V4.65904H56.4933V3.69772Z" fill="white"/>
<path d="M50.6691 92.4638C51.9259 92.4638 52.9448 91.449 52.9448 90.1972C52.9448 88.9453 51.9259 87.9305 50.6691 87.9305C49.4122 87.9305 48.3934 88.9453 48.3934 90.1972C48.3934 91.449 49.4122 92.4638 50.6691 92.4638Z" fill="white"/>
<path d="M73.9661 11.0367H27.6504V82.1134H73.9661V11.0367Z" fill="white"/>
<path d="M73.9661 11.0367H27.6504V15.805H73.9661V11.0367Z" fill="#EBEBEA"/>
<path d="M30.5566 14.1056C30.9661 14.1056 31.2981 13.7749 31.2981 13.367C31.2981 12.9591 30.9661 12.6284 30.5566 12.6284C30.1471 12.6284 29.8151 12.9591 29.8151 13.367C29.8151 13.7749 30.1471 14.1056 30.5566 14.1056Z" fill="#FF6160"/>
<path d="M33.4293 14.1056C33.8388 14.1056 34.1708 13.7749 34.1708 13.367C34.1708 12.9591 33.8388 12.6284 33.4293 12.6284C33.0197 12.6284 32.6877 12.9591 32.6877 13.367C32.6877 13.7749 33.0197 14.1056 33.4293 14.1056Z" fill="#FFD200"/>
<path d="M36.3019 14.1056C36.7115 14.1056 37.0435 13.7749 37.0435 13.367C37.0435 12.9591 36.7115 12.6284 36.3019 12.6284C35.8924 12.6284 35.5604 12.9591 35.5604 13.367C35.5604 13.7749 35.8924 14.1056 36.3019 14.1056Z" fill="#00BFB3"/>
<path d="M45.577 38.0219C49.7363 38.0219 53.1081 34.6635 53.1081 30.5207C53.1081 26.3779 49.7363 23.0196 45.577 23.0196C41.4177 23.0196 38.0459 26.3779 38.0459 30.5207C38.0459 34.6635 41.4177 38.0219 45.577 38.0219Z" fill="#0F4AB2"/>
<path d="M56.0393 38.0219C60.1986 38.0219 63.5704 34.6635 63.5704 30.5207C63.5704 26.3779 60.1986 23.0196 56.0393 23.0196C51.88 23.0196 48.5082 26.3779 48.5082 30.5207C48.5082 34.6635 51.88 38.0219 56.0393 38.0219Z" fill="#528BF7"/>
<path d="M50.8083 35.9168C52.0786 35.9168 53.1083 33.501 53.1083 30.521C53.1083 27.5409 52.0786 25.1251 50.8083 25.1251C49.538 25.1251 48.5082 27.5409 48.5082 30.521C48.5082 33.501 49.538 35.9168 50.8083 35.9168Z" fill="#FA5E63"/>
<path d="M50.8082 35.9168C52.0785 35.9168 53.1083 33.501 53.1083 30.521C53.1083 27.5409 52.0785 25.1251 50.8082 25.1251C49.538 25.1251 48.5082 27.5409 48.5082 30.521C48.5082 33.501 49.538 35.9168 50.8082 35.9168Z" fill="#E82D37"/>
<path d="M53.5559 26.1841L48.0598 27.4525V26.7405L53.5559 25.472V26.1841Z" fill="white"/>
<path d="M53.5559 27.8077L48.0598 29.0761V28.364L53.5559 27.0956V27.8077Z" fill="white"/>
<path d="M53.5559 29.4306L48.0598 30.699V29.9869L53.5559 28.7185V29.4306Z" fill="white"/>
<path d="M53.5559 31.0552L48.0598 32.3236V31.6116L53.5559 30.3432V31.0552Z" fill="white"/>
<path d="M53.5559 32.6786L48.0598 33.947V33.2349L53.5559 31.9665V32.6786Z" fill="white"/>
<path d="M53.5559 34.3028L48.0598 35.5712V34.8591L53.5559 33.5907V34.3028Z" fill="white"/>
<path d="M33.5086 63.4859L33.2289 63.0905L39.3761 58.7734L42.3387 62.7218L50.9247 56.6111L51.2075 57.005L42.2344 63.3916L39.2703 59.441L33.5086 63.4859Z" fill="#528BF7"/>
<path d="M33.368 64.5463C34.0658 64.5463 34.6314 63.9829 34.6314 63.2879C34.6314 62.5929 34.0658 62.0295 33.368 62.0295C32.6703 62.0295 32.1046 62.5929 32.1046 63.2879C32.1046 63.9829 32.6703 64.5463 33.368 64.5463Z" fill="#FFD200"/>
<path d="M39.3222 60.3654C40.02 60.3654 40.5857 59.802 40.5857 59.107C40.5857 58.412 40.02 57.8486 39.3222 57.8486C38.6245 57.8486 38.0588 58.412 38.0588 59.107C38.0588 59.802 38.6245 60.3654 39.3222 60.3654Z" fill="#FFD200"/>
<path d="M42.2856 64.3148C42.9834 64.3148 43.549 63.7514 43.549 63.0564C43.549 62.3614 42.9834 61.798 42.2856 61.798C41.5879 61.798 41.0222 62.3614 41.0222 63.0564C41.0222 63.7514 41.5879 64.3148 42.2856 64.3148Z" fill="#FFD200"/>
<path d="M50.8932 58.0861C51.5909 58.0861 52.1566 57.5227 52.1566 56.8277C52.1566 56.1327 51.5909 55.5693 50.8932 55.5693C50.1954 55.5693 49.6298 56.1327 49.6298 56.8277C49.6298 57.5227 50.1954 58.0861 50.8932 58.0861Z" fill="#FFD200"/>
<path d="M70.534 43.9166H30.4323V45.0244H70.534V43.9166Z" fill="#E6E6E6"/>
<path d="M70.534 46.7957H30.4323V47.9034H70.534V46.7957Z" fill="#E6E6E6"/>
<path d="M70.534 49.6747H30.4323V50.7825H70.534V49.6747Z" fill="#E6E6E6"/>
<path d="M70.5342 56.5137H54.8581V57.6214H70.5342V56.5137Z" fill="#E6E6E6"/>
<path d="M70.5342 59.3927H54.8581V60.5005H70.5342V59.3927Z" fill="#E6E6E6"/>
<path d="M70.5342 62.2718H54.8581V63.3796H70.5342V62.2718Z" fill="#E6E6E6"/>
<path d="M46.1085 70.518H30.4323V71.6257H46.1085V70.518Z" fill="#E6E6E6"/>
<path d="M46.1085 73.3971H30.4323V74.5048H46.1085V73.3971Z" fill="#E6E6E6"/>
<path d="M46.1085 76.2761H30.4323V77.3839H46.1085V76.2761Z" fill="#E6E6E6"/>
<path d="M56.4932 67.3507H52.3878V77.3838H56.4932V67.3507Z" fill="#E82D37"/>
<path d="M62.6635 73.397H58.6608V77.3838H62.6635V73.397Z" fill="#FFD200"/>
<path d="M68.9368 68.3866H64.8313V77.3836H68.9368V68.3866Z" fill="#32C1CC"/>
<path d="M18.0432 81.8358C21.2541 81.714 23.6715 80.459 25.3489 79.3604L28.0384 77.6889C20.4892 81.5099 16.7559 80.0878 16.7559 80.0878C16.7559 80.0878 17.5472 80.3217 18.0432 81.8358Z" fill="#00AF9E"/>
<path d="M27.8255 95.8291L18.4454 82.9281L17.303 83.0356L16.1611 82.9281L6.78046 95.8291H8.42007L17.3032 87.931L26.1866 95.8291H27.8255Z" fill="#EBEBEA"/>
<path d="M36.233 95.9998C36.6418 95.9998 36.9732 95.5754 36.9732 95.0518C36.9732 94.5283 36.6418 94.1039 36.233 94.1039C35.8242 94.1039 35.4929 94.5283 35.4929 95.0518C35.4929 95.5754 35.8242 95.9998 36.233 95.9998Z" fill="#EBEBEA"/>
<path d="M39.4766 95.9998C39.8854 95.9998 40.2167 95.5754 40.2167 95.0518C40.2167 94.5283 39.8854 94.1039 39.4766 94.1039C39.0678 94.1039 38.7364 94.5283 38.7364 95.0518C38.7364 95.5754 39.0678 95.9998 39.4766 95.9998Z" fill="#EBEBEA"/>
<path d="M42.124 95.9998C42.5328 95.9998 42.8642 95.5754 42.8642 95.0518C42.8642 94.5283 42.5328 94.1039 42.124 94.1039C41.7152 94.1039 41.3839 94.5283 41.3839 95.0518C41.3839 95.5754 41.7152 95.9998 42.124 95.9998Z" fill="#EBEBEA"/>
<path d="M40.8548 78.2159H37.2869C35.7509 78.2159 34.5058 79.456 34.5058 80.9859V92.3871C34.5058 93.9169 35.7509 95.1571 37.2869 95.1571H40.8548C42.3907 95.1571 43.6359 93.9169 43.6359 92.3871V80.9859C43.6359 79.456 42.3907 78.2159 40.8548 78.2159Z" fill="#EBEBEA"/>
<path d="M38.603 78.2159H37.2869C35.7509 78.2159 34.5058 79.456 34.5058 80.9859V92.3871C34.5058 93.9169 35.7509 95.1571 37.2869 95.1571H38.603C40.139 95.1571 41.3841 93.9169 41.3841 92.3871V80.9859C41.3841 79.456 40.139 78.2159 38.603 78.2159Z" fill="#EBEBEA"/>
<path d="M16.1773 83.6431C15.363 83.6417 14.5496 83.589 13.742 83.4853C10.4915 83.0761 8.59573 79.7914 6.58879 76.3153C6.17033 75.5896 5.73718 74.839 5.29303 74.1225C4.53122 72.8611 3.35021 71.905 1.95489 71.4199C1.3346 71.194 0.681944 71.0685 0.021827 71.0481L-0.000427246 69.9203C1.26267 69.9524 2.49746 70.2996 3.5908 70.9304C4.68414 71.5612 5.601 72.4552 6.25738 73.5305C6.70979 74.262 7.14744 75.0197 7.57081 75.7532C9.43275 78.9798 11.1926 82.0284 13.8836 82.3664C17.4582 82.8164 19.7645 82.1708 21.9937 81.5464C22.5418 81.3933 23.1076 81.2349 23.6737 81.0992C26.4791 80.4278 28.3879 80.4688 29.8318 82.6649L28.8849 83.2832C27.8952 81.7799 26.7402 81.5253 23.9384 82.196C23.3939 82.3262 22.8628 82.4746 22.3007 82.6322C20.5849 83.1131 18.6918 83.6431 16.1773 83.6431Z" fill="#EBEBEA"/>
<path d="M42.1353 76.2788C42.1353 76.2788 41.6074 71.2176 42.5974 71.0364C42.8442 70.9919 44.0805 78.1562 43.9154 78.1862L42.5334 78.4388L42.1353 76.2788Z" fill="#231F20"/>
<path d="M17.5673 76.0039C17.5673 76.0039 26.3977 72.3205 27.0847 72.5032C27.7717 72.6859 43.6353 76.0039 43.6353 76.0039L43.5389 76.9741L17.5673 76.0039Z" fill="#00AF9E"/>
<path d="M17.567 76.0038C17.567 76.0038 26.1861 73.1598 27.4551 73.2653C28.7241 73.3708 43.6352 76.4809 43.6352 76.4809L43.2652 78.3739C43.2652 78.3739 36.55 78.2684 33.6943 78.3739C30.8386 78.4794 29.1473 78.1104 28.037 77.6889C27.1911 77.5311 23.9651 81.611 18.0433 81.8356C16.6682 77.6365 17.567 76.0038 17.567 76.0038Z" fill="#00BFB3"/>
<path d="M42.6649 76.0474C42.6649 76.0474 43.0637 70.9737 44.0704 70.9737C44.3217 70.9737 44.2381 78.243 44.0704 78.243H42.6649V76.0474Z" fill="#231F20"/>
<path d="M8.44618 64.1539C10.2422 64.1539 11.6982 62.7037 11.6982 60.9148C11.6982 59.1259 10.2422 57.6757 8.44618 57.6757C6.65014 57.6757 5.19415 59.1259 5.19415 60.9148C5.19415 62.7037 6.65014 64.1539 8.44618 64.1539Z" fill="#F7DBB2"/>
<path d="M2.92084 60.2826C2.92942 59.0381 3.43169 57.8474 4.31827 56.9704C5.20485 56.0934 6.40382 55.6012 7.65335 55.6012C8.90288 55.6012 10.1016 56.0934 10.9882 56.9704C11.8748 57.8474 12.3771 59.0381 12.3857 60.2826H2.92084Z" fill="#231F20"/>
<path d="M8.24444 63.7901C8.24444 63.3064 7.85074 62.9142 7.36508 62.9142C6.87942 62.9142 6.48572 63.3064 6.48572 63.7901V65.5189C6.48572 66.0027 6.87942 66.3948 7.36508 66.3948C7.85074 66.3948 8.24444 66.0027 8.24444 65.5189V63.7901Z" fill="#F7DBB2"/>
<path d="M6.1454 66.3949C6.1454 66.3949 4.1981 66.8926 5.06629 70.4212C5.93448 73.9498 8.94848 75.8936 10.3761 79.0552C11.8037 82.2169 14.8176 82.3231 18.3073 81.7964C19.0475 80.2692 19.1534 77.8991 18.3073 75.9506C16.3509 75.0549 15.1348 74.3707 12.9676 70.6836C10.8005 66.9966 9.21244 65.1073 6.1454 66.3949Z" fill="#FF6160"/>
<path d="M7.65308 60.2826H2.92047V67.0252H7.65308V60.2826Z" fill="#231F20"/>
<path d="M10.81 68.1354L15.287 71.4328C15.287 71.4328 18.1596 68.9169 19.7223 67.7201C21.2851 66.5234 21.9524 66.223 22.2777 64.6564C22.2745 64.455 22.6151 64.5102 22.4402 65.158C22.2653 65.8058 22.6188 65.5946 22.8916 65.0492C23.1644 64.5038 23.4214 63.8333 23.5309 63.7694C23.6404 63.7055 23.8403 63.7501 23.1499 65.3064C23.5074 64.8948 24.1282 63.5854 24.2971 63.657C24.5132 63.7485 23.921 64.8142 23.4547 65.5472C23.8229 65.3047 24.3832 64.2828 24.5626 64.2837C24.742 64.2845 24.1502 65.2913 23.6969 65.8358C24.2686 65.4186 24.529 65.0538 24.6523 65.137C24.7756 65.2203 23.8352 66.0561 22.3765 67.2689C20.3211 68.9772 18.4406 70.8493 17.2462 71.7441C16.0519 72.6389 15.6103 73.6091 14.4112 73.2631C13.2122 72.9171 9.23602 70.3885 9.23602 70.3885L10.81 68.1354Z" fill="#F7DBB2"/>
<path d="M11.2056 68.4271L10.8094 68.1354L9.23505 70.3885C9.23505 70.3885 9.60772 70.7692 11.1891 71.6313L11.2056 68.4271Z" fill="#F7DBB2"/>
<path d="M9.89819 71.8981L7.86171 70.0813C6.76117 69.2333 6.44926 67.7995 7.16441 66.8785C7.87934 65.9577 9.32128 65.9375 10.4218 66.7851L12.699 68.292" fill="#E82D37"/>
</svg>
